<?xml version="1.0" encoding="utf-8"?>
<svg width="128px" height="128px" viewBox="0 0 128 128" version="1.1" xmlns:xlink="http://www.w3.org/1999/xlink" xmlns="http://www.w3.org/2000/svg">
  <g id="编组-12-复制">
    <g id="编组-11" transform="translate(0 80)">
      <path d="M128 0L128 0L128 40C128 44.4189 124.419 48 120 48L8 48C3.58112 48 0 44.4189 0 40L0 0L128 0Z" id="矩形-4-复制-22" fill="#EE4A97" stroke="none" />
      <g id="Pnlo" transform="translate(26.5 8)">
        <g id="Pnlo" fill="#FFFFFF">
          <path d="M19.328 7.168L2.752 7.168C1.984 7.168 1.696 7.68 2.112 8.32L2.368 8.736C2.528 9.024 2.592 9.216 2.592 9.504L2.592 24.32C2.592 24.928 2.944 25.28 3.552 25.28L7.712 25.28C8.32 25.28 8.672 24.928 8.672 24.32L8.672 19.776C8.672 19.36 8.896 19.136 9.312 19.136L19.36 19.136C20.288 19.136 21.344 18.24 21.44 16.992L21.44 9.28C21.44 7.904 20.704 7.168 19.328 7.168ZM15.296 10.88L15.296 15.424C15.296 15.84 15.072 16.064 14.656 16.064L9.312 16.064C8.896 16.064 8.672 15.84 8.672 15.424L8.672 10.88C8.672 10.464 8.896 10.24 9.312 10.24L14.656 10.24C15.072 10.24 15.296 10.464 15.296 10.88ZM39.968 11.776L26.336 11.776C25.568 11.776 25.28 12.288 25.696 12.928L25.952 13.344C26.112 13.632 26.176 13.824 26.176 14.112L26.176 24.32C26.176 24.928 26.528 25.28 27.136 25.28L31.36 25.28C31.968 25.28 32.32 24.928 32.32 24.32L32.32 15.488C32.32 15.072 32.544 14.848 32.96 14.848L35.36 14.848C35.776 14.848 36 15.072 36 15.488L36 24.32C36 24.928 36.352 25.28 36.96 25.28L41.12 25.28C41.728 25.28 42.08 24.928 42.08 24.32L42.08 13.888C42.08 12.512 41.312 11.776 39.968 11.776ZM46.112 6.272L46.496 6.88C46.656 7.168 46.72 7.36 46.72 7.648L46.72 23.136C46.848 24.384 47.584 25.28 48.832 25.28L53.792 25.28C54.592 25.28 54.88 24.736 54.368 24.096L53.024 22.432C52.832 22.176 52.736 21.952 52.736 21.632L52.736 6.272C52.736 5.664 52.384 5.312 51.776 5.312L46.88 5.312C46.112 5.312 45.76 5.728 46.112 6.272ZM57.408 13.888L57.408 23.136C57.408 24.384 58.304 25.28 59.552 25.28L71.264 25.28C72.64 25.28 73.376 24.544 73.376 23.168L73.376 14.208C73.376 12.768 72.384 11.776 71.136 11.776L59.52 11.776C58.144 11.776 57.408 12.512 57.408 13.888ZM67.2 15.488L67.2 21.568C67.2 21.984 66.976 22.208 66.56 22.208L64.128 22.208C63.712 22.208 63.488 21.984 63.488 21.568L63.488 15.488C63.488 15.072 63.712 14.848 64.128 14.848L66.56 14.848C66.976 14.848 67.2 15.072 67.2 15.488Z" />
        </g>
      </g>
    </g>
    <g id="编组-10">
      <path d="M120 0C124.419 0 128 3.58112 128 8L128 80L0 80L0 8C0 3.58112 3.58112 0 8 0L120 0Z" id="矩形-23" fill="#FFFFFF" stroke="none" />
      <g id="~" transform="translate(26.5 8)">
        <g id="~" fill="#EE4A97">
          <path d="M31.488 34.368L31.488 30.592C31.488 29.504 31.04 28.736 30.08 28.288L7.936 17.856C6.592 17.216 5.696 17.792 5.696 19.264L5.696 24C5.696 25.088 6.208 25.856 7.168 26.24L19.328 31.36C20.352 31.808 20.352 32.576 19.328 33.024L7.168 38.144C6.208 38.528 5.696 39.296 5.696 40.384L5.696 45.696C5.696 47.168 6.592 47.744 7.936 47.104L30.08 36.672C31.04 36.224 31.488 35.456 31.488 34.368ZM72.96 29.888L72.96 35.328C72.96 35.968 72.704 36.48 72.128 36.864C59.264 45.76 52.288 30.784 39.616 38.72C38.656 39.296 38.016 38.976 38.016 37.952L38.016 32.512C38.016 31.872 38.272 31.36 38.848 30.976C51.712 22.08 58.688 37.056 71.36 29.12C72.32 28.544 72.96 28.864 72.96 29.888Z" />
        </g>
      </g>
    </g>
  </g>
</svg>
