<?xml version="1.0" encoding="utf-8"?>
<svg width="768px" height="768px" viewBox="0 0 768 768" version="1.1" xmlns:xlink="http://www.w3.org/1999/xlink" xmlns="http://www.w3.org/2000/svg">
  <g id="pnlo">
    <path d="M0 0L768 0L768 768L0 768L0 0L0 0Z" id="矩形" fill="#292A2E" fill-rule="evenodd" stroke="none" />
    <g id="Znlo" transform="translate(94 230.5)">
      <g id="Pnlo" fill="#AF4DFF">
        <path d="M126.72 79.872Q142.336 79.872 155.52 87.552Q168.704 95.232 176.384 108.288Q184.064 121.344 184.064 136.96Q184.064 152.576 176.384 165.76Q168.704 178.944 155.52 186.624Q142.336 194.304 126.72 194.304L51.456 194.304L51.456 256L10.496 256L10.496 79.872L126.72 79.872ZM113.152 166.912Q125.44 166.912 134.144 158.208Q142.848 149.504 142.848 136.96Q142.848 124.672 134.144 115.968Q125.44 107.264 113.152 107.264L51.456 107.264L51.456 166.912L113.152 166.912ZM300.8 256L300.8 168.192Q300.8 159.488 294.784 153.472Q288.768 147.456 280.064 147.456L264.192 147.456Q255.488 147.456 249.472 153.472Q243.456 159.488 243.456 168.192L243.456 256L202.496 256L202.496 160Q202.496 149.248 207.872 140.032Q213.248 130.816 222.464 125.44Q231.68 120.064 242.432 120.064L301.824 120.064Q312.832 120.064 322.048 125.44Q331.264 130.816 336.64 140.032Q342.016 149.248 342.016 160L342.016 256L300.8 256ZM406.784 256L365.568 256L365.568 80.128L406.784 80.128L406.784 256ZM529.664 120.064Q540.672 120.064 549.888 125.44Q559.104 130.816 564.48 140.032Q569.856 149.248 569.856 160L569.856 216.064Q569.856 226.816 564.48 236.032Q559.104 245.248 549.888 250.624Q540.672 256 529.664 256L470.272 256Q459.264 256 450.176 250.624Q441.088 245.248 435.712 236.032Q430.336 226.816 430.336 216.064L430.336 160Q430.336 149.248 435.712 140.032Q441.088 130.816 450.176 125.44Q459.264 120.064 470.272 120.064L529.664 120.064ZM528.64 168.192Q528.64 159.488 522.624 153.472Q516.608 147.456 507.904 147.456L492.032 147.456Q483.328 147.456 477.312 153.472Q471.296 159.488 471.296 168.192L471.296 207.872Q471.296 216.576 477.312 222.592Q483.328 228.608 492.032 228.608L507.904 228.608Q516.608 228.608 522.624 222.592Q528.64 216.576 528.64 207.872L528.64 168.192Z" />
      </g>
    </g>
  </g>
</svg>
